<svg width="38" height="38" viewBox="0 0 38 38" xmlns="http://www.w3.org/2000/svg">
    <g fill="none" fill-rule="evenodd">
        <path d="M12.313 3.563h10.281v9.684h8.281v17.19a4 4 0 0 1-4 4H12.312a4 4 0 0 1-4-4V7.563a4 4 0 0 1 4-4z" fill="#0263D1"/>
        <path fill="#4E92DF" d="m22.594 3.563 8.281 9.684h-8.313z"/>
        <path d="M11.756 27.313v-5.91h1.904a2.8 2.8 0 0 1 1.408.355c.417.237.742.57.976 1.003.234.431.353.915.355 1.45v.272c0 .542-.114 1.027-.343 1.456-.228.428-.55.764-.966 1.006a2.739 2.739 0 0 1-1.39.367h-1.944zm1.425-4.81v3.714h.495c.409 0 .722-.146.942-.437.219-.29.328-.723.328-1.297v-.255c0-.571-.11-1.001-.328-1.29-.22-.29-.539-.435-.958-.435h-.48zM22.135 24.48c0 .576-.107 1.086-.321 1.53a2.37 2.37 0 0 1-.911 1.024c-.394.24-.842.36-1.346.36-.503 0-.95-.116-1.34-.347a2.366 2.366 0 0 1-.91-.993c-.218-.43-.333-.924-.343-1.481v-.333c0-.58.106-1.09.318-1.532.213-.443.517-.784.913-1.025.397-.24.848-.361 1.354-.361.5 0 .947.119 1.34.357.392.238.697.577.915 1.017.218.44.328.943.33 1.511v.272zm-1.45-.248c0-.587-.098-1.033-.294-1.338a.944.944 0 0 0-.842-.456c-.714 0-1.092.536-1.132 1.607l-.004.434c0 .58.096 1.025.288 1.336.192.311.477.467.856.467.36 0 .637-.153.832-.46.195-.305.294-.745.297-1.318v-.272zM27.65 25.311c-.018.412-.13.775-.332 1.09-.203.316-.488.56-.855.733-.366.173-.785.26-1.256.26-.776 0-1.388-.253-1.834-.76-.447-.505-.67-1.22-.67-2.142v-.293c0-.579.1-1.085.302-1.52.202-.434.492-.77.87-1.006a2.43 2.43 0 0 1 1.316-.355c.717 0 1.293.188 1.729.566.436.377.683.897.743 1.56h-1.42c-.012-.36-.102-.618-.273-.775-.17-.157-.43-.235-.78-.235-.354 0-.613.132-.778.398-.165.265-.252.688-.26 1.27v.418c0 .63.079 1.081.237 1.352.159.27.431.405.818.405.328 0 .578-.077.751-.23.173-.155.265-.4.276-.736h1.417z" fill="#FFF" fill-rule="nonzero"/>
    </g>
</svg>
