<svg width="32" height="32" viewBox="0 0 32 32" xmlns="http://www.w3.org/2000/svg" xmlns:xlink="http://www.w3.org/1999/xlink">
    <defs>
        <circle id="ralkksci1a" cx="16" cy="16" r="16"/>
        <path id="e62jge4e0c" d="M0 0h26v10H0z"/>
    </defs>
    <g fill="none" fill-rule="evenodd">
        <mask id="zhh2f0v24b" fill="#fff">
            <use xlink:href="#ralkksci1a"/>
        </mask>
        <use fill="#0C6EB6" xlink:href="#ralkksci1a"/>
        <g mask="url(#zhh2f0v24b)">
            <g transform="translate(3 11)">
                <mask id="yfd3wc7r6d" fill="#fff">
                    <use xlink:href="#e62jge4e0c"/>
                </mask>
                <path d="M2.836 3.748c-.689.1-1.18.497-1.168 1.247.014.805.53 1.286 1.327 1.241.736-.041 1.178-.528 1.143-1.291-.035-.762-.507-1.14-1.302-1.197m4.971-.895c-.1-.733-.517-1.204-1.26-1.184-.8.021-1.279.535-1.225 1.336.05.739.547 1.162 1.305 1.12.761-.041 1.132-.515 1.18-1.272m-1.25 2.94c-.66.112-1.19.448-1.241 1.208-.051.764.407 1.256 1.132 1.316.793.064 1.316-.387 1.343-1.215.024-.775-.48-1.146-1.234-1.31m8.307.48c-1.503 0-3.006.019-4.508-.01-.605-.012-.929.025-.917.817.021 1.42-.85 2.478-2.083 2.808-1.32.354-2.592-.125-3.314-1.406-.304-.539-.625-.58-1.15-.593C1.184 7.844-.038 6.553.001 4.92c.038-1.586 1.244-2.808 2.92-2.8.644.003.886-.243 1.183-.738C4.803.214 6.093-.24 7.37.122 8.59.468 9.485 1.486 9.432 2.81c-.036.935.369.95 1.058.947 4.793-.017 9.586-.01 14.379-.01.517 0 1.219-.111.994.727-.166.615.785 1.796-.775 1.791-.464-.001-.534.24-.53.611.01.691-.007 1.383.006 2.074.007.443-.008.794-.62.786-.539-.006-.84-.106-.806-.737.022-.427.237-1.014-.61-1.018-.844-.004-.62.576-.618 1.01.002.473-.066.754-.652.748-.569-.005-.846-.174-.772-.767.01-.08.003-.163.001-.244-.05-2.457-.05-2.457-2.454-2.457h-3.169" fill="#F5E512" mask="url(#yfd3wc7r6d)"/>
            </g>
        </g>
    </g>
</svg>
