<svg width="38" height="38" viewBox="0 0 38 38" xmlns="http://www.w3.org/2000/svg">
    <g fill="none" fill-rule="evenodd">
        <path d="M11.125 3.563h10.282v9.684h8.28v17.19a4 4 0 0 1-4 4H11.126a4 4 0 0 1-4-4V7.563a4 4 0 0 1 4-4z" fill="#00733B"/>
        <path fill="#4D9D76" d="m21.407 3.563 8.28 9.684h-8.312z"/>
        <path fill="#FFF" fill-rule="nonzero" d="m13.55 23.367.966-1.964h1.627l-1.651 2.93 1.696 2.98h-1.644l-.994-2.002-.995 2.002h-1.64l1.693-2.98-1.648-2.93h1.624zM18.075 26.217h2.48v1.096h-3.904v-5.91h1.424zM24.204 25.742a.585.585 0 0 0-.22-.487c-.148-.117-.407-.237-.778-.362a7.457 7.457 0 0 1-.91-.36c-.765-.377-1.148-.894-1.148-1.551 0-.328.095-.617.286-.867.19-.25.46-.445.81-.584.349-.14.741-.21 1.177-.21.425 0 .806.076 1.143.228.336.151.598.367.785.647.187.28.28.6.28.96h-1.42c0-.24-.074-.427-.222-.56-.147-.132-.347-.199-.599-.199-.254 0-.455.056-.602.169a.517.517 0 0 0-.221.428c0 .151.08.289.243.412.162.123.448.25.856.381.41.132.745.273 1.007.425.639.368.958.875.958 1.522 0 .516-.195.922-.585 1.217-.39.295-.924.443-1.603.443a3.18 3.18 0 0 1-1.3-.258c-.389-.172-.681-.407-.877-.706a1.84 1.84 0 0 1-.295-1.033h1.43c0 .316.081.55.245.7.163.15.43.225.797.225.236 0 .422-.05.558-.152a.502.502 0 0 0 .205-.428z"/>
    </g>
</svg>
